# xmcd
# 
# Track frame offsets:
#     187
#     17625
#     35630
#     54042
#     69750
#     85685
#     105432
#     121705
#     142757
# 
# Disc length: 2331
# 
# Revision: 7
# Processed by: cddbd v1.5.2PL0 Copyright (c) Steve Scherf et al.
# Submitted via: fre:ac v1.0.17
# 
DISCID=5b091909
DTITLE=THIN LIZZY - Black Rose - A ROCK LEGEND
DYEAR=1979
DGENRE=Hard Rock
TTITLE0=Do Anything You Want To
TTITLE1=Toughest Street In Town
TTITLE2=S and M
TTITLE3=Waiting For An Alibi
TTITLE4=My Sarah
TTITLE5=Got To Give It Up
TTITLE6=Get Out Of Here
TTITLE7=With Love
TTITLE8=Roisin Dubh (Black Rose)/A Rock Legend
EXTD=YEAR: 1979
EXTT0=
EXTT1=
EXTT2=
EXTT3=
EXTT4=
EXTT5=
EXTT6=
EXTT7=
EXTT8=
PLAYORDER=
